<svg width="70" height="71" viewBox="0 0 70 71" fill="none" xmlns="http://www.w3.org/2000/svg">
<path d="M15.5556 15.9607H54.4445V54.0394H15.5556V15.9607Z" fill="url(#paint0_linear_225_2322)"/>
<path d="M29.7421 35.3459H33.1891L31.4656 28.6617L29.7421 35.3459ZM18.4977 18.9423V51.0764H51.5516V18.9423H18.4977ZM35.0809 42.6747L33.8197 38.3307H29.1534L27.8922 42.6747H24.6973L29.1955 27.3165V25.635H33.4834L38.6121 42.6747H35.0809ZM43.5728 42.6747H40.1257V29.7128H43.5728V42.6747ZM41.8701 28.1574C40.8834 28.1574 40.0833 27.3669 40.0833 26.3918C40.0833 25.4166 40.8832 24.6261 41.8701 24.6261C42.857 24.6261 43.6568 25.4166 43.6568 26.3918C43.6568 27.3669 42.8569 28.1574 41.8701 28.1574Z" fill="url(#paint1_linear_225_2322)"/>
<path d="M2.70508 70V63.3789H1.68555V70H2.70508ZM8.25977 69.0918H5.0957V63.3789H4.07617V70H8.25977V69.0918ZM13.4629 69.0918H10.2988V63.3789H9.2793V70H13.4629V69.0918ZM15.1504 63.3789H14.1309V67.668C14.1309 69.1035 15.168 70.1113 16.8555 70.1113C18.5488 70.1113 19.5859 69.1035 19.5859 67.668V63.3789H18.5664V67.5801C18.5664 68.5176 17.9453 69.1738 16.8555 69.1738C15.7715 69.1738 15.1504 68.5176 15.1504 67.5801V63.3789ZM20.6582 68.1543C20.7285 69.3555 21.7363 70.1113 23.2246 70.1113C24.8184 70.1113 25.8203 69.332 25.8203 68.0898C25.8203 67.1172 25.2461 66.5723 23.8574 66.25L23.1191 66.0742C22.2461 65.8633 21.8828 65.5938 21.8828 65.1309C21.8828 64.5508 22.4512 64.1523 23.2715 64.1523C24.0977 64.1523 24.6543 64.5508 24.7188 65.2012H25.7148C25.6797 64.0527 24.7012 63.2676 23.2891 63.2676C21.8535 63.2676 20.8398 64.0527 20.8398 65.207C20.8398 66.1328 21.4082 66.7012 22.6562 66.9941L23.5234 67.1992C24.4023 67.4102 24.7773 67.709 24.7773 68.2188C24.7773 68.7988 24.1621 69.2207 23.3008 69.2207C22.3984 69.2207 21.7422 68.7988 21.666 68.1543H20.6582ZM29.6172 70V64.2871H31.7324V63.3789H26.4824V64.2871H28.5977V70H29.6172ZM33.7246 63.3789H32.7051V67.668C32.7051 69.1035 33.7422 70.1113 35.4297 70.1113C37.123 70.1113 38.1602 69.1035 38.1602 67.668V63.3789H37.1406V67.5801C37.1406 68.5176 36.5195 69.1738 35.4297 69.1738C34.3457 69.1738 33.7246 68.5176 33.7246 67.5801V63.3789ZM40.5566 64.2578H42.0566C42.877 64.2578 43.375 64.709 43.375 65.4355C43.375 66.1855 42.9062 66.6191 42.0859 66.6191H40.5566V64.2578ZM40.5566 67.4629H42.0625L43.4453 70H44.6289L43.1055 67.2988C43.9316 67.0234 44.4238 66.3027 44.4238 65.4062C44.4238 64.1699 43.5566 63.3789 42.1797 63.3789H39.5371V70H40.5566V67.4629ZM49.9609 70H51.0332L48.5898 63.3789H47.5L45.0566 70H46.1172L46.7441 68.2246H49.334L49.9609 70ZM48.0215 64.4922H48.0508L49.0645 67.3867H47.0078L48.0215 64.4922ZM53.6523 70V64.2871H55.7676V63.3789H50.5176V64.2871H52.6328V70H53.6523ZM59.207 63.2676C57.2617 63.2676 56.0488 64.5859 56.0488 66.6895C56.0488 68.7988 57.2617 70.1113 59.207 70.1113C61.1465 70.1113 62.3594 68.7988 62.3594 66.6895C62.3594 64.5859 61.1465 63.2676 59.207 63.2676ZM59.207 64.1934C60.502 64.1934 61.3164 65.1602 61.3164 66.6895C61.3164 68.2188 60.502 69.1855 59.207 69.1855C57.9062 69.1855 57.0918 68.2188 57.0918 66.6895C57.0918 65.1602 57.9121 64.1934 59.207 64.1934ZM64.5098 64.2578H66.0098C66.8301 64.2578 67.3281 64.709 67.3281 65.4355C67.3281 66.1855 66.8594 66.6191 66.0391 66.6191H64.5098V64.2578ZM64.5098 67.4629H66.0156L67.3984 70H68.582L67.0586 67.2988C67.8848 67.0234 68.377 66.3027 68.377 65.4062C68.377 64.1699 67.5098 63.3789 66.1328 63.3789H63.4902V70H64.5098V67.4629Z" fill="#808080"/>
<defs>
<linearGradient id="paint0_linear_225_2322" x1="54.2419" y1="15.7581" x2="16.1295" y2="53.8705" gradientUnits="userSpaceOnUse">
<stop stop-color="#FFAA2A"/>
<stop offset="1" stop-color="#FFC06C"/>
</linearGradient>
<linearGradient id="paint1_linear_225_2322" x1="35.0246" y1="18.8883" x2="35.0246" y2="50.9142" gradientUnits="userSpaceOnUse">
<stop stop-color="#251200"/>
<stop offset="1"/>
</linearGradient>
</defs>
</svg>
