<svg width="70" height="78" viewBox="0 0 70 78" fill="none" xmlns="http://www.w3.org/2000/svg">
<g filter="url(#filter0_d_1086_1779)">
<path d="M36.2309 37.2296C36.3178 35.6794 37.0769 34.3136 38.2222 33.3454C39.3453 32.3945 40.857 31.8132 42.5064 31.8132C44.1542 31.8132 45.6659 32.3945 46.7898 33.3454C47.9343 34.3136 48.6934 35.6794 48.7811 37.228C48.868 38.8208 48.2278 40.3005 47.1047 41.3974C45.9594 42.5132 44.3305 43.2133 42.5064 43.2133C40.6824 43.2133 39.0502 42.5132 37.9057 41.3974C36.7818 40.3005 36.1432 38.8208 36.2309 37.2296Z" fill="#265787"/>
<path d="M26.236 40.3612C26.2467 40.9678 26.4402 42.1467 26.7304 43.0673C27.3403 45.016 28.3749 46.8187 29.8144 48.4075C31.2917 50.0405 33.1108 51.3522 35.212 52.2834C37.4205 53.2615 39.8135 53.7599 42.2991 53.7558C44.7806 53.7525 47.1736 53.2442 49.3821 52.2588C51.4833 51.3185 53.3007 50.0011 54.7755 48.3673C56.2143 46.772 57.2472 44.966 57.8588 43.0173C58.1662 42.0328 58.3605 41.0334 58.4384 40.0308C58.5146 39.043 58.4827 38.0535 58.3425 37.0648C58.0687 35.1383 57.4021 33.3306 56.3758 31.6828C55.4371 30.1687 54.2271 28.8431 52.7884 27.7274L52.7916 27.7249L38.2723 16.5765C38.2591 16.5667 38.2485 16.556 38.2346 16.547C37.282 15.8158 35.6801 15.8182 34.6324 16.5511C33.5732 17.2922 33.4519 18.5178 34.3946 19.2908L34.3905 19.2949L40.4464 24.2194L21.9887 24.2391H21.9641C20.4385 24.2408 18.9719 25.2417 18.6816 26.5067C18.3832 27.7954 19.4195 28.8644 21.0058 28.8701L21.0033 28.8759L30.3588 28.8578L13.6645 41.672C13.6432 41.6876 13.6202 41.704 13.6006 41.7196C12.0257 42.9255 11.5166 44.9307 12.5086 46.1998C13.5153 47.4901 15.6558 47.4926 17.247 46.2071L26.3582 38.7503C26.3582 38.7503 26.2254 39.757 26.236 40.3612ZM49.6485 43.7322C47.7712 45.6447 45.143 46.7294 42.2991 46.7351C39.4511 46.74 36.8229 45.6653 34.9455 43.756C34.0282 42.8255 33.3543 41.7548 32.9387 40.6145C32.5312 39.4939 32.373 38.3043 32.478 37.1041C32.5772 35.931 32.9264 34.812 33.4838 33.7996C34.0315 32.8043 34.7857 31.905 35.717 31.1443C37.5418 29.6571 39.8651 28.8521 42.295 28.8488C44.7273 28.8455 47.049 29.6432 48.8755 31.1254C49.8051 31.8829 50.5585 32.7789 51.1061 33.7725C51.6661 34.7841 52.0128 35.899 52.1161 37.0754C52.2194 38.274 52.0612 39.4619 51.6538 40.5834C51.2373 41.727 50.5659 42.7976 49.6485 43.7322Z" fill="#EA7600"/>
<path d="M17.5156 70H14.7559V63.3789H17.5039C18.6934 63.3789 19.4785 64.0293 19.4785 65.0312C19.4785 65.7344 18.957 66.3613 18.2832 66.4727V66.5078C19.1973 66.6074 19.8184 67.2461 19.8184 68.125C19.8184 69.291 18.9512 70 17.5156 70ZM15.7754 64.2344V66.1914H17.0352C17.9551 66.1914 18.4648 65.8281 18.4648 65.1777C18.4648 64.5742 18.0254 64.2344 17.2578 64.2344H15.7754ZM15.7754 69.1445H17.3164C18.2656 69.1445 18.7695 68.7695 18.7695 68.0547C18.7695 67.3516 18.248 66.9883 17.2461 66.9883H15.7754V69.1445ZM25.0332 69.0918V70H20.8496V63.3789H21.8691V69.0918H25.0332ZM30.3242 69.0918V70H26.0527V63.3789H30.3242V64.2871H27.0723V66.1914H30.1543V67.0645H27.0723V69.0918H30.3242ZM32.5215 70H31.5254V63.3789H32.457L35.9844 68.2129H36.0254V63.3789H37.0215V70H36.0898L32.5625 65.1719H32.5215V70ZM38.3926 63.3789H40.7949C42.8047 63.3789 43.9941 64.5859 43.9941 66.6777C43.9941 68.7695 42.8105 70 40.7949 70H38.3926V63.3789ZM39.4121 64.2871V69.0918H40.707C42.1543 69.0918 42.9512 68.2422 42.9512 66.6836C42.9512 65.1426 42.1484 64.2871 40.707 64.2871H39.4121ZM49.3906 69.0918V70H45.1191V63.3789H49.3906V64.2871H46.1387V66.1914H49.2207V67.0645H46.1387V69.0918H49.3906ZM51.6113 64.2578V66.6191H53.1406C53.9609 66.6191 54.4297 66.1855 54.4297 65.4355C54.4297 64.709 53.9316 64.2578 53.1113 64.2578H51.6113ZM51.6113 67.4629V70H50.5918V63.3789H53.2344C54.6113 63.3789 55.4785 64.1699 55.4785 65.4062C55.4785 66.3027 54.9863 67.0234 54.1602 67.2988L55.6836 70H54.5L53.1172 67.4629H51.6113Z" fill="#808080"/>
</g>
<defs>
<filter id="filter0_d_1086_1779" x="-4" y="0" width="78" height="78" filterUnits="userSpaceOnUse" color-interpolation-filters="sRGB">
<feFlood flood-opacity="0" result="BackgroundImageFix"/>
<feColorMatrix in="SourceAlpha" type="matrix" values="0 0 0 0 0 0 0 0 0 0 0 0 0 0 0 0 0 0 127 0" result="hardAlpha"/>
<feOffset dy="4"/>
<feGaussianBlur stdDeviation="2"/>
<feComposite in2="hardAlpha" operator="out"/>
<feColorMatrix type="matrix" values="0 0 0 0 0 0 0 0 0 0 0 0 0 0 0 0 0 0 0.25 0"/>
<feBlend mode="normal" in2="BackgroundImageFix" result="effect1_dropShadow_1086_1779"/>
<feBlend mode="normal" in="SourceGraphic" in2="effect1_dropShadow_1086_1779" result="shape"/>
</filter>
</defs>
</svg>
