<svg width="70" height="71" viewBox="0 0 70 71" fill="none" xmlns="http://www.w3.org/2000/svg">
<path d="M52.1451 15.5555L49.0212 50.5515L34.979 54.4444L20.9755 50.557L17.8549 15.5555H52.1451Z" fill="#264DE4"/>
<path d="M46.3468 48.3231L49.0164 18.4175H35V51.4689L46.3468 48.3231Z" fill="#2965F1"/>
<path d="M25.0088 31.3989L25.3936 35.6917H35V31.3989H25.0088Z" fill="#EBEBEB"/>
<path d="M35 22.7102H34.9852H24.2357L24.626 27.003H35V22.7102Z" fill="#EBEBEB"/>
<path d="M35 47.0139V42.5476L34.9812 42.5526L30.2003 41.2617L29.8947 37.838H27.5715H25.5854L26.1868 44.5783L34.9802 47.0194L35 47.0139Z" fill="#EBEBEB"/>
<path d="M40.2712 35.6916L39.773 41.259L34.9852 42.5513V47.0174L43.7856 44.5784L43.8502 43.8531L44.8589 32.5516L44.9637 31.3989L45.7386 22.7102H34.9852V27.003H41.0341L40.6435 31.3989H34.9852V35.6916H40.2712Z" fill="white"/>
<path d="M29.7227 70.1113C31.2695 70.1113 32.3184 69.2969 32.582 67.9199H31.5625C31.3516 68.7168 30.6719 69.1914 29.7285 69.1914C28.4746 69.1914 27.6777 68.2246 27.6777 66.6836C27.6777 65.166 28.4805 64.1875 29.7227 64.1875C30.6426 64.1875 31.375 64.7441 31.5625 65.5879H32.5762C32.3945 64.1992 31.2402 63.2676 29.7227 63.2676C27.8418 63.2676 26.6348 64.5859 26.6348 66.6895C26.6348 68.8047 27.8301 70.1113 29.7227 70.1113ZM33.3496 68.1543C33.4199 69.3555 34.4277 70.1113 35.916 70.1113C37.5098 70.1113 38.5117 69.332 38.5117 68.0898C38.5117 67.1172 37.9375 66.5723 36.5488 66.25L35.8105 66.0742C34.9375 65.8633 34.5742 65.5938 34.5742 65.1309C34.5742 64.5508 35.1426 64.1523 35.9629 64.1523C36.7891 64.1523 37.3457 64.5508 37.4102 65.2012H38.4062C38.3711 64.0527 37.3926 63.2676 35.9805 63.2676C34.5449 63.2676 33.5312 64.0527 33.5312 65.207C33.5312 66.1328 34.0996 66.7012 35.3477 66.9941L36.2148 67.1992C37.0938 67.4102 37.4688 67.709 37.4688 68.2188C37.4688 68.7988 36.8535 69.2207 35.9922 69.2207C35.0898 69.2207 34.4336 68.7988 34.3574 68.1543H33.3496ZM39.2676 68.1543C39.3379 69.3555 40.3457 70.1113 41.834 70.1113C43.4277 70.1113 44.4297 69.332 44.4297 68.0898C44.4297 67.1172 43.8555 66.5723 42.4668 66.25L41.7285 66.0742C40.8555 65.8633 40.4922 65.5938 40.4922 65.1309C40.4922 64.5508 41.0605 64.1523 41.8809 64.1523C42.707 64.1523 43.2637 64.5508 43.3281 65.2012H44.3242C44.2891 64.0527 43.3105 63.2676 41.8984 63.2676C40.4629 63.2676 39.4492 64.0527 39.4492 65.207C39.4492 66.1328 40.0176 66.7012 41.2656 66.9941L42.1328 67.1992C43.0117 67.4102 43.3867 67.709 43.3867 68.2188C43.3867 68.7988 42.7715 69.2207 41.9102 69.2207C41.0078 69.2207 40.3516 68.7988 40.2754 68.1543H39.2676Z" fill="#808080"/>
</svg>
