<svg width="70" height="71" viewBox="0 0 70 71" fill="none" xmlns="http://www.w3.org/2000/svg">
<path d="M28.5185 54.4444C32.0963 54.4444 35 51.5407 35 47.9629V41.4814H28.5185C24.9408 41.4814 22.037 44.3851 22.037 47.9629C22.037 51.5407 24.9408 54.4444 28.5185 54.4444Z" fill="#0ACF83"/>
<path d="M22.037 34.9999C22.037 31.4221 24.9408 28.5184 28.5185 28.5184H35V41.4814H28.5185C24.9408 41.4814 22.037 38.5777 22.037 34.9999Z" fill="#A259FF"/>
<path d="M22.037 22.037C22.037 18.4592 24.9408 15.5555 28.5185 15.5555H35V28.5185H28.5185C24.9408 28.5185 22.037 25.6148 22.037 22.037Z" fill="#F24E1E"/>
<path d="M35 15.5555H41.4815C45.0593 15.5555 47.963 18.4592 47.963 22.037C47.963 25.6148 45.0593 28.5185 41.4815 28.5185H35V15.5555Z" fill="#FF7262"/>
<path d="M47.963 34.9999C47.963 38.5777 45.0593 41.4814 41.4815 41.4814C37.9037 41.4814 35 38.5777 35 34.9999C35 31.4221 37.9037 28.5184 41.4815 28.5184C45.0593 28.5184 47.963 31.4221 47.963 34.9999Z" fill="#1ABCFE"/>
<path d="M23.1562 70V67.2402H26.0684V66.3555H23.1562V64.2871H26.3379V63.3789H22.1367V70H23.1562ZM28.3945 70V63.3789H27.375V70H28.3945ZM35.5664 67.2461V66.5664H32.7891V67.4102H34.5586V67.5215C34.5469 68.5117 33.7793 69.1914 32.666 69.1914C31.3711 69.1914 30.5625 68.2246 30.5625 66.6543C30.5625 65.1074 31.3477 64.1875 32.6543 64.1875C33.5449 64.1875 34.2129 64.6562 34.4707 65.4707H35.5195C35.2793 64.1406 34.1484 63.2676 32.6543 63.2676C30.7324 63.2676 29.5195 64.5684 29.5195 66.6602C29.5195 68.7871 30.7324 70.1113 32.6602 70.1113C34.4883 70.1113 35.5664 69.0391 35.5664 67.2461ZM43.5234 70V63.3789H42.3398L40.1367 68.5586H40.1016L37.8984 63.3789H36.7148V70H37.6465V65.1602H37.6816L39.7383 69.9473H40.5L42.5566 65.1602H42.5918V70H43.5234ZM49.2949 70H50.3672L47.9238 63.3789H46.834L44.3906 70H45.4512L46.0781 68.2246H48.668L49.2949 70ZM47.3555 64.4922H47.3848L48.3984 67.3867H46.3418L47.3555 64.4922Z" fill="#808080"/>
</svg>
