<svg width="70" height="71" viewBox="0 0 70 71" fill="none" xmlns="http://www.w3.org/2000/svg">
<path d="M39.3968 29.6021L35.5076 33.2233L31.8975 25.9383L33.7625 21.7496C34.2338 20.914 35.0047 20.903 35.4761 21.7496L39.3968 29.6021Z" fill="#FFA000"/>
<path d="M35.5092 33.2217L20.9614 46.7528L31.8991 25.9384L35.5092 33.2217Z" fill="#F57F17"/>
<path d="M43.6613 24.0639C44.3581 23.4002 45.0754 23.6241 45.2567 24.5668L49.0387 46.5699L36.4945 54.1008C36.0547 54.3468 34.8881 54.4429 34.8881 54.4429C34.8881 54.4429 33.8271 54.3137 33.4204 54.0898L20.9614 46.7528L43.6613 24.0639Z" fill="#FFCA28"/>
<path d="M31.8991 25.9384L20.9614 46.7528L25.8359 16.3297C26.0187 15.3869 26.5532 15.2908 27.0356 16.1263L31.8991 25.9384Z" fill="#FFA000"/>
<path d="M16.7305 70V67.2402H19.6426V66.3555H16.7305V64.2871H19.9121V63.3789H15.7109V70H16.7305ZM21.9688 70V63.3789H20.9492V70H21.9688ZM24.3594 64.2578H25.8594C26.6797 64.2578 27.1777 64.709 27.1777 65.4355C27.1777 66.1855 26.709 66.6191 25.8887 66.6191H24.3594V64.2578ZM24.3594 67.4629H25.8652L27.248 70H28.4316L26.9082 67.2988C27.7344 67.0234 28.2266 66.3027 28.2266 65.4062C28.2266 64.1699 27.3594 63.3789 25.9824 63.3789H23.3398V70H24.3594V67.4629ZM33.6348 69.0918H30.3828V67.0645H33.4648V66.1914H30.3828V64.2871H33.6348V63.3789H29.3633V70H33.6348V69.0918ZM37.5957 70C39.0312 70 39.8984 69.291 39.8984 68.125C39.8984 67.2461 39.2773 66.6074 38.3633 66.5078V66.4727C39.0371 66.3613 39.5586 65.7344 39.5586 65.0312C39.5586 64.0293 38.7734 63.3789 37.584 63.3789H34.8359V70H37.5957ZM35.8555 64.2344H37.3379C38.1055 64.2344 38.5449 64.5742 38.5449 65.1777C38.5449 65.8281 38.0352 66.1914 37.1152 66.1914H35.8555V64.2344ZM35.8555 69.1445V66.9883H37.3262C38.3281 66.9883 38.8496 67.3516 38.8496 68.0547C38.8496 68.7695 38.3457 69.1445 37.3965 69.1445H35.8555ZM45.3301 70H46.4023L43.959 63.3789H42.8691L40.4258 70H41.4863L42.1133 68.2246H44.7031L45.3301 70ZM43.3906 64.4922H43.4199L44.4336 67.3867H42.377L43.3906 64.4922ZM46.9648 68.1543C47.0352 69.3555 48.043 70.1113 49.5312 70.1113C51.125 70.1113 52.127 69.332 52.127 68.0898C52.127 67.1172 51.5527 66.5723 50.1641 66.25L49.4258 66.0742C48.5527 65.8633 48.1895 65.5938 48.1895 65.1309C48.1895 64.5508 48.7578 64.1523 49.5781 64.1523C50.4043 64.1523 50.9609 64.5508 51.0254 65.2012H52.0215C51.9863 64.0527 51.0078 63.2676 49.5957 63.2676C48.1602 63.2676 47.1465 64.0527 47.1465 65.207C47.1465 66.1328 47.7148 66.7012 48.9629 66.9941L49.8301 67.1992C50.709 67.4102 51.084 67.709 51.084 68.2188C51.084 68.7988 50.4688 69.2207 49.6074 69.2207C48.7051 69.2207 48.0488 68.7988 47.9727 68.1543H46.9648ZM57.459 69.0918H54.207V67.0645H57.2891V66.1914H54.207V64.2871H57.459V63.3789H53.1875V70H57.459V69.0918Z" fill="#808080"/>
</svg>
