<svg width="70" height="71" viewBox="0 0 70 71" fill="none" xmlns="http://www.w3.org/2000/svg">
<path d="M25.2786 40.9869L19.2901 34.9984L38.7345 15.5555H50.7099L25.2786 40.9869ZM50.7099 33.4974H38.7345L34.2487 37.9832L40.2372 43.9717" fill="#42A5F5" fill-opacity="0.8"/>
<path d="M34.2487 49.9586L38.7345 54.4444H50.7099L40.2372 43.9717" fill="#0D47A1"/>
<path d="M28.2744 43.9749L34.2534 37.9943L40.2325 43.9733L34.2534 49.9539L28.2744 43.9749Z" fill="#42A5F5"/>
<path d="M34.2534 49.9539L40.2325 43.9749L41.0671 44.8095L35.088 50.7885L34.2534 49.9539Z" fill="url(#paint0_linear_238_91)"/>
<path d="M34.2487 49.9586L43.1339 46.8889L40.2372 43.9701" fill="url(#paint1_linear_238_91)"/>
<path d="M18.1719 70V67.2402H21.084V66.3555H18.1719V64.2871H21.3535V63.3789H17.1523V70H18.1719ZM26.5742 69.0918H23.4102V63.3789H22.3906V70H26.5742V69.0918ZM28.2617 63.3789H27.2422V67.668C27.2422 69.1035 28.2793 70.1113 29.9668 70.1113C31.6602 70.1113 32.6973 69.1035 32.6973 67.668V63.3789H31.6777V67.5801C31.6777 68.5176 31.0566 69.1738 29.9668 69.1738C28.8828 69.1738 28.2617 68.5176 28.2617 67.5801V63.3789ZM36.8105 70V64.2871H38.9258V63.3789H33.6758V64.2871H35.791V70H36.8105ZM42.6348 70V64.2871H44.75V63.3789H39.5V64.2871H41.6152V70H42.6348ZM49.9941 69.0918H46.7422V67.0645H49.8242V66.1914H46.7422V64.2871H49.9941V63.3789H45.7227V70H49.9941V69.0918ZM52.2148 64.2578H53.7148C54.5352 64.2578 55.0332 64.709 55.0332 65.4355C55.0332 66.1855 54.5645 66.6191 53.7441 66.6191H52.2148V64.2578ZM52.2148 67.4629H53.7207L55.1035 70H56.2871L54.7637 67.2988C55.5898 67.0234 56.082 66.3027 56.082 65.4062C56.082 64.1699 55.2148 63.3789 53.8379 63.3789H51.1953V70H52.2148V67.4629Z" fill="#808080"/>
<defs>
<linearGradient id="paint0_linear_238_91" x1="37.2441" y1="46.9633" x2="38.0787" y2="47.7979" gradientUnits="userSpaceOnUse">
<stop offset="0.2" stop-opacity="0.15"/>
<stop offset="0.85" stop-color="#616161" stop-opacity="0.01"/>
</linearGradient>
<linearGradient id="paint1_linear_238_91" x1="34.2508" y1="46.9645" x2="43.1359" y2="46.9645" gradientUnits="userSpaceOnUse">
<stop offset="0.2" stop-opacity="0.55"/>
<stop offset="0.85" stop-color="#616161" stop-opacity="0.01"/>
</linearGradient>
</defs>
</svg>
