<svg width="70" height="71" viewBox="0 0 70 71" fill="none" xmlns="http://www.w3.org/2000/svg">
<path d="M20.972 50.5688L17.8526 15.5555H52.1474L49.028 50.5499L34.9717 54.4444" fill="#E44D26"/>
<path d="M34.9999 51.467V18.4294H49.0184L46.3433 48.3003" fill="#F16529"/>
<path d="M24.2238 22.7114H35V27.003H28.9313L29.3283 31.3986H35V35.6807H25.396L24.2238 22.7114ZM25.585 37.8359H29.8955L30.198 41.2673L35 42.5529V47.0335L26.19 44.5758" fill="#EBEBEB"/>
<path d="M45.7382 22.7114H34.9809V27.003H45.3412L45.7382 22.7114ZM44.9536 31.3986H34.9809V35.6901H40.2745L39.7735 41.2673L34.9809 42.5529V47.0146L43.772 44.5758" fill="white"/>
<path d="M25.5078 70V63.3789H24.4883V66.168H20.9902V63.3789H19.9707V70H20.9902V67.082H24.4883V70H25.5078ZM29.6211 70V64.2871H31.7363V63.3789H26.4863V64.2871H28.6016V70H29.6211ZM39.5176 70V63.3789H38.334L36.1309 68.5586H36.0957L33.8926 63.3789H32.709V70H33.6406V65.1602H33.6758L35.7324 69.9473H36.4941L38.5508 65.1602H38.5859V70H39.5176ZM45.0723 69.0918H41.9082V63.3789H40.8887V70H45.0723V69.0918ZM50.8555 70.123C52.3086 70.123 53.3281 69.1855 53.3281 67.8262C53.3281 66.5371 52.3906 65.6055 51.0957 65.6055C50.4395 65.6055 49.8828 65.8633 49.5898 66.2793H49.5664L49.7598 64.2637H52.9355V63.3789H48.9336L48.5762 67.1289H49.5137C49.7773 66.7012 50.2871 66.4375 50.8789 66.4375C51.7285 66.4375 52.3262 67.0293 52.3262 67.8496C52.3262 68.6699 51.7285 69.2441 50.8672 69.2441C50.1055 69.2441 49.5254 68.7988 49.4492 68.1543H48.4766C48.5352 69.3145 49.5195 70.123 50.8555 70.123Z" fill="#808080"/>
</svg>
