<svg width="70" height="71" viewBox="0 0 70 71" fill="none" xmlns="http://www.w3.org/2000/svg">
<path d="M17.1759 17.662H52.8241V52.338H17.1759V17.662Z" fill="url(#paint0_radial_225_2327)"/>
<path d="M17.1759 17.662H52.8242V52.338H17.1759V17.662ZM15.5556 53.9584H54.4445V16.0416H15.5556V53.9584ZM40.1529 31.7916C39.9098 31.6782 39.5857 31.6296 39.1968 31.6296C37.1065 31.6296 35.6482 33.2338 35.6482 35.9074C35.6482 38.9537 37.1389 40.1851 39.0024 40.1851C39.4075 40.1851 39.8288 40.1365 40.1529 39.9907V31.7916ZM39.294 29.1504C39.6343 29.1504 39.8288 29.1504 40.1528 29.1828V24.8726C40.1528 24.7592 40.2338 24.7106 40.3147 24.7106H42.9398C43.0694 24.7106 43.1018 24.7592 43.1018 24.8402V39.9908C43.1018 40.4444 43.1018 41.0116 43.1828 41.6273C43.1828 41.7407 43.1504 41.7569 43.037 41.8218C41.6435 42.4861 40.169 42.7778 38.7917 42.7778C35.2107 42.7778 32.6504 40.558 32.6504 36.0371C32.6343 32.1643 35.1945 29.1504 39.294 29.1504ZM29.7825 42.3241C29.7825 42.4861 29.7501 42.5347 29.5718 42.5347H27.0764C26.9144 42.5347 26.8657 42.4537 26.8657 42.3241V24.9212C26.8657 24.7592 26.9468 24.7106 27.0764 24.7106H29.588C29.7176 24.7106 29.7825 24.7592 29.7825 24.905V42.3241Z" fill="#FF408C"/>
<path d="M14.9141 70V63.3789H13.8945V70H14.9141ZM17.2812 70V65.1719H17.3223L20.8496 70H21.7812V63.3789H20.7852V68.2129H20.7441L17.2168 63.3789H16.2852V70H17.2812ZM23.1523 63.3789V70H25.5547C27.5703 70 28.7539 68.7695 28.7539 66.6777C28.7539 64.5859 27.5645 63.3789 25.5547 63.3789H23.1523ZM24.1719 64.2871H25.4668C26.9082 64.2871 27.7109 65.1426 27.7109 66.6836C27.7109 68.2422 26.9141 69.0918 25.4668 69.0918H24.1719V64.2871ZM34.1504 69.0918H30.8984V67.0645H33.9805V66.1914H30.8984V64.2871H34.1504V63.3789H29.8789V70H34.1504V69.0918ZM35.0469 68.1543C35.1172 69.3555 36.125 70.1113 37.6133 70.1113C39.207 70.1113 40.209 69.332 40.209 68.0898C40.209 67.1172 39.6348 66.5723 38.2461 66.25L37.5078 66.0742C36.6348 65.8633 36.2715 65.5938 36.2715 65.1309C36.2715 64.5508 36.8398 64.1523 37.6602 64.1523C38.4863 64.1523 39.043 64.5508 39.1074 65.2012H40.1035C40.0684 64.0527 39.0898 63.2676 37.6777 63.2676C36.2422 63.2676 35.2285 64.0527 35.2285 65.207C35.2285 66.1328 35.7969 66.7012 37.0449 66.9941L37.9121 67.1992C38.791 67.4102 39.166 67.709 39.166 68.2188C39.166 68.7988 38.5508 69.2207 37.6895 69.2207C36.7871 69.2207 36.1309 68.7988 36.0547 68.1543H35.0469ZM42.2891 70V63.3789H41.2695V70H42.2891ZM49.4609 67.2461V66.5664H46.6836V67.4102H48.4531V67.5215C48.4414 68.5117 47.6738 69.1914 46.5605 69.1914C45.2656 69.1914 44.457 68.2246 44.457 66.6543C44.457 65.1074 45.2422 64.1875 46.5488 64.1875C47.4395 64.1875 48.1074 64.6562 48.3652 65.4707H49.4141C49.1738 64.1406 48.043 63.2676 46.5488 63.2676C44.627 63.2676 43.4141 64.5684 43.4141 66.6602C43.4141 68.7871 44.627 70.1113 46.5547 70.1113C48.3828 70.1113 49.4609 69.0391 49.4609 67.2461ZM51.6055 70V65.1719H51.6465L55.1738 70H56.1055V63.3789H55.1094V68.2129H55.0684L51.541 63.3789H50.6094V70H51.6055Z" fill="#808080"/>
<defs>
<radialGradient id="paint0_radial_225_2327" cx="0" cy="0" r="1" gradientUnits="userSpaceOnUse" gradientTransform="translate(28.9167 25.4329) scale(27.0926 26.2306)">
<stop stop-color="#4B2B36" stop-opacity="0.98"/>
<stop offset="1" stop-color="#250012"/>
</radialGradient>
</defs>
</svg>
