<svg width="70" height="71" viewBox="0 0 70 71" fill="none" xmlns="http://www.w3.org/2000/svg">
<path d="M54.4444 15.5555H15.5556V54.4444H54.4444V15.5555Z" fill="#F7DF1E"/>
<path d="M41.679 45.9377C42.4623 47.2167 43.4815 48.1568 45.2839 48.1568C46.7981 48.1568 47.7654 47.4 47.7654 46.3544C47.7654 45.1013 46.7716 44.6574 45.1049 43.9284L44.1914 43.5365C41.5543 42.413 39.8025 41.0056 39.8025 38.0303C39.8025 35.2895 41.8907 33.2031 45.1543 33.2031C47.4778 33.2031 49.1481 34.0118 50.3519 36.1291L47.5062 37.9562C46.8796 36.8328 46.2037 36.3902 45.1543 36.3902C44.0839 36.3902 43.4056 37.0692 43.4056 37.9562C43.4056 39.0525 44.0846 39.4963 45.6525 40.1753L46.566 40.5667C49.671 41.8982 51.4241 43.2556 51.4241 46.3074C51.4241 49.5976 48.8395 51.4 45.3685 51.4C41.9747 51.4 39.7821 49.7828 38.7093 47.663L41.679 45.9377ZM28.7698 46.2544C29.3438 47.2729 29.866 48.134 31.1216 48.134C32.3222 48.134 33.0796 47.6642 33.0796 45.8377V33.4118H36.7339V45.8871C36.7339 49.671 34.5154 51.3932 31.2772 51.3932C28.3512 51.3932 26.6568 49.879 25.7951 48.0553L28.7698 46.2544Z" fill="#040404"/>
<path d="M8.45508 68.2832C8.45508 69.3965 9.27539 70.1465 10.4824 70.1465C11.7891 70.1465 12.5625 69.3789 12.5625 68.0605V63.3789H11.543V68.0547C11.543 68.8047 11.168 69.2031 10.4707 69.2031C9.88477 69.2031 9.47461 68.834 9.45703 68.2832H8.45508ZM18.3516 70H19.4238L16.9805 63.3789H15.8906L13.4473 70H14.5078L15.1348 68.2246H17.7246L18.3516 70ZM16.4121 64.4922H16.4414L17.4551 67.3867H15.3984L16.4121 64.4922ZM22.6641 70L25.084 63.3789H24L22.1367 68.8223H22.1074L20.2441 63.3789H19.1426L21.5625 70H22.6641ZM29.707 70H30.7793L28.3359 63.3789H27.2461L24.8027 70H25.8633L26.4902 68.2246H29.0801L29.707 70ZM27.7676 64.4922H27.7969L28.8105 67.3867H26.7539L27.7676 64.4922ZM31.3418 68.1543C31.4121 69.3555 32.4199 70.1113 33.9082 70.1113C35.502 70.1113 36.5039 69.332 36.5039 68.0898C36.5039 67.1172 35.9297 66.5723 34.541 66.25L33.8027 66.0742C32.9297 65.8633 32.5664 65.5938 32.5664 65.1309C32.5664 64.5508 33.1348 64.1523 33.9551 64.1523C34.7812 64.1523 35.3379 64.5508 35.4023 65.2012H36.3984C36.3633 64.0527 35.3848 63.2676 33.9727 63.2676C32.5371 63.2676 31.5234 64.0527 31.5234 65.207C31.5234 66.1328 32.0918 66.7012 33.3398 66.9941L34.207 67.1992C35.0859 67.4102 35.4609 67.709 35.4609 68.2188C35.4609 68.7988 34.8457 69.2207 33.9844 69.2207C33.082 69.2207 32.4258 68.7988 32.3496 68.1543H31.3418ZM40.4062 70.1113C41.9531 70.1113 43.002 69.2969 43.2656 67.9199H42.2461C42.0352 68.7168 41.3555 69.1914 40.4121 69.1914C39.1582 69.1914 38.3613 68.2246 38.3613 66.6836C38.3613 65.166 39.1641 64.1875 40.4062 64.1875C41.3262 64.1875 42.0586 64.7441 42.2461 65.5879H43.2598C43.0781 64.1992 41.9238 63.2676 40.4062 63.2676C38.5254 63.2676 37.3184 64.5859 37.3184 66.6895C37.3184 68.8047 38.5137 70.1113 40.4062 70.1113ZM45.3574 64.2578H46.8574C47.6777 64.2578 48.1758 64.709 48.1758 65.4355C48.1758 66.1855 47.707 66.6191 46.8867 66.6191H45.3574V64.2578ZM45.3574 67.4629H46.8633L48.2461 70H49.4297L47.9062 67.2988C48.7324 67.0234 49.2246 66.3027 49.2246 65.4062C49.2246 64.1699 48.3574 63.3789 46.9805 63.3789H44.3379V70H45.3574V67.4629ZM51.3809 70V63.3789H50.3613V70H51.3809ZM52.752 63.3789V70H53.7715V67.75H55.3535C56.6719 67.75 57.6035 66.8652 57.6035 65.5645C57.6035 64.2637 56.6895 63.3789 55.3828 63.3789H52.752ZM53.7715 64.2637H55.1191C56.0332 64.2637 56.5605 64.7383 56.5605 65.5645C56.5605 66.3965 56.0332 66.8711 55.1133 66.8711H53.7715V64.2637ZM61.3828 70V64.2871H63.498V63.3789H58.248V64.2871H60.3633V70H61.3828Z" fill="#808080"/>
</svg>
