<svg width="70" height="71" viewBox="0 0 70 71" fill="none" xmlns="http://www.w3.org/2000/svg">
<path d="M15.5556 15.8796H54.4444V54.1204H15.5556V15.8796Z" fill="url(#paint0_linear_225_2337)"/>
<path d="M18.6484 18.9207H51.3518V51.0794H18.6484V18.9207Z" fill="url(#paint1_linear_225_2337)"/>
<path d="M24.9534 26.6576C24.9534 26.6576 27.4122 26.5929 29.4363 26.5929C31.4816 26.5929 32.9399 27.0741 33.919 27.9197C34.8548 28.7187 35.4858 30.0808 35.4858 31.6315C35.4858 33.1821 35.007 34.4509 34.1364 35.343C33.0049 36.4943 31.6863 37.1757 29.4363 37.27C28.8147 37.296 28.2394 37.3022 28.2394 37.3022V42.3428H24.9533L24.9534 26.6576ZM28.2393 34.5096C28.5963 34.5444 28.82 34.5277 29.3492 34.5213C31.1119 34.5002 32.1996 33.4283 32.1996 31.8072C32.1996 30.351 31.3027 29.1553 29.6105 29.0933C28.936 29.0687 28.2393 29.0933 28.2393 29.0933V34.5096Z" fill="url(#paint2_linear_225_2337)"/>
<path d="M36.7399 38.8313C37.4021 39.2376 38.965 39.8463 40.0302 39.8463C41.1186 39.8463 41.568 39.4627 41.568 38.8647C41.568 38.2659 41.2131 37.637 39.8641 37.1822C37.4738 36.3683 36.5507 35.394 36.5747 34.0303C36.5747 31.8278 38.4204 30.1763 41.2839 30.1763C42.6328 30.1763 43.7104 30.6173 44.4198 30.9761V33.6195C43.8987 33.332 42.3961 32.69 41.4024 32.69C40.5262 32.69 40.0296 33.0491 40.0296 33.647C40.0296 34.1976 40.4795 34.4849 41.8994 34.9879C44.0998 35.7537 45.0229 36.8784 45.0463 38.6018C45.0463 40.7802 43.367 42.5125 40.0296 42.4073C38.8842 42.3713 37.6152 41.9185 36.7396 41.4404L36.7399 38.8313Z" fill="url(#paint3_linear_225_2337)"/>
<path d="M5.68555 63.3789V70H6.70508V67.75H8.28711C9.60547 67.75 10.5371 66.8652 10.5371 65.5645C10.5371 64.2637 9.62305 63.3789 8.31641 63.3789H5.68555ZM6.70508 64.2637H8.05273C8.9668 64.2637 9.49414 64.7383 9.49414 65.5645C9.49414 66.3965 8.9668 66.8711 8.04688 66.8711H6.70508V64.2637ZM17.1172 70V63.3789H16.0977V66.168H12.5996V63.3789H11.5801V70H12.5996V67.082H16.0977V70H17.1172ZM21.4062 63.2676C19.4609 63.2676 18.248 64.5859 18.248 66.6895C18.248 68.7988 19.4609 70.1113 21.4062 70.1113C23.3457 70.1113 24.5586 68.7988 24.5586 66.6895C24.5586 64.5859 23.3457 63.2676 21.4062 63.2676ZM21.4062 64.1934C22.7012 64.1934 23.5156 65.1602 23.5156 66.6895C23.5156 68.2188 22.7012 69.1855 21.4062 69.1855C20.1055 69.1855 19.291 68.2188 19.291 66.6895C19.291 65.1602 20.1113 64.1934 21.4062 64.1934ZM27.9805 70V64.2871H30.0957V63.3789H24.8457V64.2871H26.9609V70H27.9805ZM33.5352 63.2676C31.5898 63.2676 30.377 64.5859 30.377 66.6895C30.377 68.7988 31.5898 70.1113 33.5352 70.1113C35.4746 70.1113 36.6875 68.7988 36.6875 66.6895C36.6875 64.5859 35.4746 63.2676 33.5352 63.2676ZM33.5352 64.1934C34.8301 64.1934 35.6445 65.1602 35.6445 66.6895C35.6445 68.2188 34.8301 69.1855 33.5352 69.1855C32.2344 69.1855 31.4199 68.2188 31.4199 66.6895C31.4199 65.1602 32.2402 64.1934 33.5352 64.1934ZM37.5137 68.1543C37.584 69.3555 38.5918 70.1113 40.0801 70.1113C41.6738 70.1113 42.6758 69.332 42.6758 68.0898C42.6758 67.1172 42.1016 66.5723 40.7129 66.25L39.9746 66.0742C39.1016 65.8633 38.7383 65.5938 38.7383 65.1309C38.7383 64.5508 39.3066 64.1523 40.127 64.1523C40.9531 64.1523 41.5098 64.5508 41.5742 65.2012H42.5703C42.5352 64.0527 41.5566 63.2676 40.1445 63.2676C38.709 63.2676 37.6953 64.0527 37.6953 65.207C37.6953 66.1328 38.2637 66.7012 39.5117 66.9941L40.3789 67.1992C41.2578 67.4102 41.6328 67.709 41.6328 68.2188C41.6328 68.7988 41.0176 69.2207 40.1562 69.2207C39.2539 69.2207 38.5977 68.7988 38.5215 68.1543H37.5137ZM49.2734 70V63.3789H48.2539V66.168H44.7559V63.3789H43.7363V70H44.7559V67.082H48.2539V70H49.2734ZM53.5625 63.2676C51.6172 63.2676 50.4043 64.5859 50.4043 66.6895C50.4043 68.7988 51.6172 70.1113 53.5625 70.1113C55.502 70.1113 56.7148 68.7988 56.7148 66.6895C56.7148 64.5859 55.502 63.2676 53.5625 63.2676ZM53.5625 64.1934C54.8574 64.1934 55.6719 65.1602 55.6719 66.6895C55.6719 68.2188 54.8574 69.1855 53.5625 69.1855C52.2617 69.1855 51.4473 68.2188 51.4473 66.6895C51.4473 65.1602 52.2676 64.1934 53.5625 64.1934ZM57.8457 63.3789V70H58.8652V67.75H60.4473C61.7656 67.75 62.6973 66.8652 62.6973 65.5645C62.6973 64.2637 61.7832 63.3789 60.4766 63.3789H57.8457ZM58.8652 64.2637H60.2129C61.127 64.2637 61.6543 64.7383 61.6543 65.5645C61.6543 66.3965 61.127 66.8711 60.207 66.8711H58.8652V64.2637Z" fill="#808080"/>
<defs>
<linearGradient id="paint0_linear_225_2337" x1="25.0062" y1="13.8826" x2="39.9136" y2="45.3827" gradientUnits="userSpaceOnUse">
<stop stop-color="#A0CBFF"/>
<stop offset="0.394" stop-color="#A0CBFE"/>
<stop offset="0.583" stop-color="#8EC2FC"/>
<stop offset="0.784" stop-color="#83BCFB"/>
<stop offset="1" stop-color="#7FBAFB"/>
</linearGradient>
<linearGradient id="paint1_linear_225_2337" x1="30.2977" y1="19.3738" x2="38.7236" y2="47.3741" gradientUnits="userSpaceOnUse">
<stop stop-color="#090058"/>
<stop offset="1" stop-color="#070033"/>
</linearGradient>
<linearGradient id="paint2_linear_225_2337" x1="20.3696" y1="15.5587" x2="35.2769" y2="47.0584" gradientUnits="userSpaceOnUse">
<stop stop-color="#A0CBFF"/>
<stop offset="0.394" stop-color="#A0CBFE"/>
<stop offset="0.583" stop-color="#8EC2FC"/>
<stop offset="0.784" stop-color="#83BCFB"/>
<stop offset="1" stop-color="#7FBAFB"/>
</linearGradient>
<linearGradient id="paint3_linear_225_2337" x1="28.8608" y1="11.4457" x2="43.8272" y2="43.0703" gradientUnits="userSpaceOnUse">
<stop stop-color="#A0CBFF"/>
<stop offset="0.394" stop-color="#A0CBFE"/>
<stop offset="0.583" stop-color="#8EC2FC"/>
<stop offset="0.784" stop-color="#83BCFB"/>
<stop offset="1" stop-color="#7FBAFB"/>
</linearGradient>
</defs>
</svg>
