<svg width="70" height="71" viewBox="0 0 70 71" fill="none" xmlns="http://www.w3.org/2000/svg">
<path d="M35 38.4286C36.8935 38.4286 38.4285 36.8936 38.4285 35.0001C38.4285 33.1065 36.8935 31.5715 35 31.5715C33.1065 31.5715 31.5715 33.1065 31.5715 35.0001C31.5715 36.8936 33.1065 38.4286 35 38.4286Z" fill="#61DAFB"/>
<path d="M35 42.0243C45.1604 42.0243 53.397 38.8794 53.397 35C53.397 31.1206 45.1604 27.9757 35 27.9757C24.8396 27.9757 16.603 31.1206 16.603 35C16.603 38.8794 24.8396 42.0243 35 42.0243Z" stroke="#61DAFB" stroke-width="3"/>
<path d="M28.9167 38.5121C33.9969 47.3113 40.8388 52.872 44.1985 50.9323C47.5582 48.9926 46.1634 40.287 41.0832 31.4878C36.003 22.6887 29.1611 17.128 25.8015 19.0677C22.4418 21.0074 23.8365 29.713 28.9167 38.5121Z" stroke="#61DAFB" stroke-width="3"/>
<path d="M28.9168 31.4878C23.8366 40.287 22.4418 48.9925 25.8015 50.9322C29.1612 52.872 36.003 47.3113 41.0832 38.5121C46.1634 29.713 47.5582 21.0074 44.1985 19.0677C40.8388 17.128 33.997 22.6886 28.9168 31.4878Z" stroke="#61DAFB" stroke-width="3"/>
<path d="M15.7559 64.2578H17.2559C18.0762 64.2578 18.5742 64.709 18.5742 65.4355C18.5742 66.1855 18.1055 66.6191 17.2852 66.6191H15.7559V64.2578ZM15.7559 67.4629H17.2617L18.6445 70H19.8281L18.3047 67.2988C19.1309 67.0234 19.623 66.3027 19.623 65.4062C19.623 64.1699 18.7559 63.3789 17.3789 63.3789H14.7363V70H15.7559V67.4629ZM25.0312 69.0918H21.7793V67.0645H24.8613V66.1914H21.7793V64.2871H25.0312V63.3789H20.7598V70H25.0312V69.0918ZM30.6328 70H31.7051L29.2617 63.3789H28.1719L25.7285 70H26.7891L27.416 68.2246H30.0059L30.6328 70ZM28.6934 64.4922H28.7227L29.7363 67.3867H27.6797L28.6934 64.4922ZM35.2148 70.1113C36.7617 70.1113 37.8105 69.2969 38.0742 67.9199H37.0547C36.8438 68.7168 36.1641 69.1914 35.2207 69.1914C33.9668 69.1914 33.1699 68.2246 33.1699 66.6836C33.1699 65.166 33.9727 64.1875 35.2148 64.1875C36.1348 64.1875 36.8672 64.7441 37.0547 65.5879H38.0684C37.8867 64.1992 36.7324 63.2676 35.2148 63.2676C33.334 63.2676 32.127 64.5859 32.127 66.6895C32.127 68.8047 33.3223 70.1113 35.2148 70.1113ZM41.5312 70V64.2871H43.6465V63.3789H38.3965V64.2871H40.5117V70H41.5312ZM45.457 70.0586C45.832 70.0586 46.125 69.7656 46.125 69.3906C46.125 69.0156 45.832 68.7227 45.457 68.7227C45.082 68.7227 44.7891 69.0156 44.7891 69.3906C44.7891 69.7656 45.082 70.0586 45.457 70.0586ZM47.2207 68.2832C47.2207 69.3965 48.041 70.1465 49.248 70.1465C50.5547 70.1465 51.3281 69.3789 51.3281 68.0605V63.3789H50.3086V68.0547C50.3086 68.8047 49.9336 69.2031 49.2363 69.2031C48.6504 69.2031 48.2402 68.834 48.2227 68.2832H47.2207ZM52.4121 68.1543C52.4824 69.3555 53.4902 70.1113 54.9785 70.1113C56.5723 70.1113 57.5742 69.332 57.5742 68.0898C57.5742 67.1172 57 66.5723 55.6113 66.25L54.873 66.0742C54 65.8633 53.6367 65.5938 53.6367 65.1309C53.6367 64.5508 54.2051 64.1523 55.0254 64.1523C55.8516 64.1523 56.4082 64.5508 56.4727 65.2012H57.4688C57.4336 64.0527 56.4551 63.2676 55.043 63.2676C53.6074 63.2676 52.5938 64.0527 52.5938 65.207C52.5938 66.1328 53.1621 66.7012 54.4102 66.9941L55.2773 67.1992C56.1562 67.4102 56.5312 67.709 56.5312 68.2188C56.5312 68.7988 55.916 69.2207 55.0547 69.2207C54.1523 69.2207 53.4961 68.7988 53.4199 68.1543H52.4121Z" fill="#808080"/>
</svg>
