<svg width="70" height="71" viewBox="0 0 70 71" fill="none" xmlns="http://www.w3.org/2000/svg">
<path d="M49.0419 37.1833C47.6852 37.1904 46.5061 37.5171 45.5187 38.0002C45.1565 37.2827 44.7942 36.6434 44.7303 36.1746C44.6593 35.6277 44.574 35.2938 44.6593 34.6403C44.7445 33.9868 45.1281 33.0563 45.121 32.9853C45.1139 32.9143 45.0357 32.5804 44.2544 32.5733C43.473 32.5662 42.7982 32.7225 42.7201 32.9285C42.6419 33.1345 42.4928 33.6033 42.3933 34.0863C42.2584 34.7966 40.8306 37.3325 40.0138 38.6608C39.7509 38.1422 39.5236 37.6876 39.4739 37.3254C39.4029 36.7784 39.3176 36.4446 39.4029 35.7911C39.4881 35.1376 39.8717 34.207 39.8646 34.136C39.8575 34.065 39.7794 33.7311 38.998 33.724C38.2166 33.7169 37.5418 33.8732 37.4637 34.0792C37.3856 34.2852 37.3003 34.7682 37.137 35.237C36.9736 35.7058 35.077 39.9393 34.5798 41.0332C34.3241 41.5944 34.1039 42.0419 33.9476 42.3473C33.9476 42.3473 33.9405 42.3686 33.9192 42.4041C33.7842 42.667 33.7061 42.809 33.7061 42.809C33.7061 42.809 33.7061 42.809 33.7061 42.8161C33.5996 43.0079 33.4859 43.1855 33.4291 43.1855C33.3865 43.1855 33.3083 42.6741 33.4433 41.978C33.7274 40.5076 34.4022 38.2204 34.3951 38.1422C34.3951 38.0996 34.523 37.7018 33.9547 37.4958C33.4007 37.2898 33.2018 37.6308 33.1521 37.6308C33.1023 37.6308 33.0668 37.7515 33.0668 37.7515C33.0668 37.7515 33.6848 35.1802 31.8877 35.1802C30.7654 35.1802 29.2169 36.409 28.4497 37.5171C27.9667 37.78 26.9368 38.3411 25.8358 38.9449C25.4167 39.1793 24.9834 39.4137 24.5785 39.6339C24.5501 39.6055 24.5217 39.57 24.4933 39.5416C22.3197 37.2188 18.2993 35.578 18.4697 32.4597C18.5337 31.3231 18.9243 28.3398 26.1909 24.7172C32.1718 21.7693 36.931 22.5862 37.7549 24.3975C38.9341 26.9831 35.2049 31.7849 29.0251 32.481C26.6668 32.7438 25.4309 31.8346 25.1183 31.4936C24.7916 31.1385 24.7419 31.1171 24.6211 31.1882C24.4222 31.2947 24.5501 31.6144 24.6211 31.7991C24.8058 32.2821 25.5658 33.1345 26.8515 33.5535C27.988 33.9229 30.7512 34.1289 34.0968 32.8361C37.8402 31.3871 40.7667 27.3596 39.9072 23.9855C39.0477 20.5618 33.3652 19.4324 27.988 21.3431C24.7916 22.4797 21.3252 24.2697 18.832 26.5995C15.87 29.3698 15.4011 31.7777 15.5929 32.7864C16.2819 36.3664 21.2187 38.6963 23.1934 40.4223C23.0939 40.4792 23.0016 40.5289 22.9234 40.5715C21.9361 41.0616 18.1714 43.0292 17.2338 45.1105C16.1683 47.4687 17.4043 49.1593 18.2211 49.3866C20.757 50.0898 23.3638 48.8254 24.7632 46.7371C26.1625 44.6488 25.992 41.9353 25.3456 40.6923C25.3385 40.6781 25.3314 40.6639 25.3172 40.6497C25.5729 40.5005 25.8358 40.3442 26.0915 40.195C26.5958 39.8967 27.093 39.6197 27.5192 39.3924C27.2777 40.053 27.1001 40.8414 27.0149 41.978C26.9083 43.3134 27.4553 45.0465 28.1727 45.7284C28.4924 46.0268 28.8688 46.0339 29.1103 46.0339C29.9485 46.0339 30.325 45.3378 30.7441 44.5138C31.2555 43.5051 31.7172 42.3331 31.7172 42.3331C31.7172 42.3331 31.1419 45.5011 32.7046 45.5011C33.2728 45.5011 33.8482 44.7624 34.1039 44.3859C34.1039 44.393 34.1039 44.393 34.1039 44.393C34.1039 44.393 34.1181 44.3717 34.1465 44.322C34.2033 44.2297 34.2389 44.1728 34.2389 44.1728C34.2389 44.1728 34.2389 44.1657 34.2389 44.1586C34.4662 43.7609 34.9776 42.8587 35.7376 41.36C36.7179 39.4279 37.6626 37.0128 37.6626 37.0128C37.6626 37.0128 37.7478 37.6024 38.0391 38.5826C38.2095 39.158 38.5647 39.7902 38.8488 40.401C38.6215 40.7207 38.4795 40.8983 38.4795 40.8983C38.4795 40.8983 38.4795 40.8983 38.4866 40.9054C38.3019 41.1469 38.103 41.4097 37.8828 41.6654C37.1085 42.5888 36.1851 43.6472 36.0573 43.9526C35.9081 44.3149 35.9436 44.5777 36.2278 44.7908C36.4337 44.9471 36.8031 44.9684 37.1796 44.9471C37.8757 44.8974 38.3658 44.7269 38.6073 44.6203C38.9838 44.4854 39.4242 44.2794 39.8362 43.974C40.5962 43.4128 41.0579 42.6101 41.0153 41.5518C40.994 40.9693 40.8022 40.3868 40.5678 39.8399C40.6388 39.7404 40.7028 39.641 40.7738 39.5416C41.9742 37.7871 42.9048 35.8621 42.9048 35.8621C42.9048 35.8621 42.99 36.4517 43.2812 37.4319C43.4233 37.9291 43.7145 38.469 43.9702 38.9946C42.8408 39.9109 42.1447 40.9764 41.8961 41.6725C41.4486 42.9653 41.7967 43.5478 42.4573 43.6827C42.7556 43.7466 43.1818 43.6046 43.4943 43.4696C43.8921 43.3418 44.3609 43.1216 44.8084 42.7948C45.5685 42.2337 46.3001 41.4523 46.2575 40.3939C46.2362 39.9109 46.1083 39.435 45.9307 38.9733C46.8897 38.5755 48.1256 38.3553 49.7025 38.54C53.0837 38.9378 53.7514 41.0474 53.6235 41.9353C53.4956 42.8232 52.7853 43.3062 52.5509 43.4554C52.3165 43.6046 52.2384 43.6543 52.2597 43.7609C52.2881 43.9171 52.4018 43.91 52.6006 43.8816C52.8777 43.8319 54.3764 43.1642 54.4404 41.5305C54.5469 39.4421 52.558 37.162 49.0419 37.1833ZM22.959 45.9771C21.8367 47.1988 20.2739 47.6605 19.5991 47.2698C18.8746 46.8507 19.1587 45.0465 20.5368 43.7538C21.3749 42.9653 22.4546 42.2337 23.1721 41.7862C23.3354 41.6867 23.5769 41.5447 23.8682 41.3671C23.9179 41.3387 23.9463 41.3245 23.9463 41.3245C24.0031 41.2889 24.06 41.2534 24.1168 41.2179C24.6211 43.0647 24.1381 44.6914 22.959 45.9771ZM31.1276 40.4223C30.737 41.3742 29.9201 43.8106 29.4229 43.6756C28.9967 43.562 28.7339 41.7151 29.3376 39.8896C29.6431 38.9733 30.2895 37.8794 30.6659 37.4532C31.2768 36.7713 31.9516 36.544 32.115 36.821C32.321 37.1833 31.3692 39.8257 31.1276 40.4223ZM37.8686 43.6472C37.7052 43.7324 37.5489 43.7893 37.4779 43.7466C37.4282 43.7182 37.5489 43.6046 37.5489 43.6046C37.5489 43.6046 38.3942 42.6954 38.7281 42.2834C38.9199 42.0419 39.1472 41.7578 39.3887 41.4381C39.3887 41.4665 39.3887 41.502 39.3887 41.5305C39.3887 42.6172 38.3374 43.3489 37.8686 43.6472ZM43.0681 42.461C42.9474 42.3757 42.9687 42.0916 43.3736 41.2037C43.5298 40.8556 43.8992 40.2732 44.5314 39.712C44.6024 39.9393 44.6522 40.1595 44.6451 40.3655C44.6379 41.7364 43.6577 42.2479 43.0681 42.461Z" fill="#CD6799"/>
<path d="M22.834 68.1543C22.9043 69.3555 23.9121 70.1113 25.4004 70.1113C26.9941 70.1113 27.9961 69.332 27.9961 68.0898C27.9961 67.1172 27.4219 66.5723 26.0332 66.25L25.2949 66.0742C24.4219 65.8633 24.0586 65.5938 24.0586 65.1309C24.0586 64.5508 24.627 64.1523 25.4473 64.1523C26.2734 64.1523 26.8301 64.5508 26.8945 65.2012H27.8906C27.8555 64.0527 26.877 63.2676 25.4648 63.2676C24.0293 63.2676 23.0156 64.0527 23.0156 65.207C23.0156 66.1328 23.584 66.7012 24.832 66.9941L25.6992 67.1992C26.5781 67.4102 26.9531 67.709 26.9531 68.2188C26.9531 68.7988 26.3379 69.2207 25.4766 69.2207C24.5742 69.2207 23.918 68.7988 23.8418 68.1543H22.834ZM33.457 70H34.5293L32.0859 63.3789H30.9961L28.5527 70H29.6133L30.2402 68.2246H32.8301L33.457 70ZM31.5176 64.4922H31.5469L32.5605 67.3867H30.5039L31.5176 64.4922ZM35.0918 68.1543C35.1621 69.3555 36.1699 70.1113 37.6582 70.1113C39.252 70.1113 40.2539 69.332 40.2539 68.0898C40.2539 67.1172 39.6797 66.5723 38.291 66.25L37.5527 66.0742C36.6797 65.8633 36.3164 65.5938 36.3164 65.1309C36.3164 64.5508 36.8848 64.1523 37.7051 64.1523C38.5312 64.1523 39.0879 64.5508 39.1523 65.2012H40.1484C40.1133 64.0527 39.1348 63.2676 37.7227 63.2676C36.2871 63.2676 35.2734 64.0527 35.2734 65.207C35.2734 66.1328 35.8418 66.7012 37.0898 66.9941L37.957 67.1992C38.8359 67.4102 39.2109 67.709 39.2109 68.2188C39.2109 68.7988 38.5957 69.2207 37.7344 69.2207C36.832 69.2207 36.1758 68.7988 36.0996 68.1543H35.0918ZM41.0098 68.1543C41.0801 69.3555 42.0879 70.1113 43.5762 70.1113C45.1699 70.1113 46.1719 69.332 46.1719 68.0898C46.1719 67.1172 45.5977 66.5723 44.209 66.25L43.4707 66.0742C42.5977 65.8633 42.2344 65.5938 42.2344 65.1309C42.2344 64.5508 42.8027 64.1523 43.623 64.1523C44.4492 64.1523 45.0059 64.5508 45.0703 65.2012H46.0664C46.0312 64.0527 45.0527 63.2676 43.6406 63.2676C42.2051 63.2676 41.1914 64.0527 41.1914 65.207C41.1914 66.1328 41.7598 66.7012 43.0078 66.9941L43.875 67.1992C44.7539 67.4102 45.1289 67.709 45.1289 68.2188C45.1289 68.7988 44.5137 69.2207 43.6523 69.2207C42.75 69.2207 42.0938 68.7988 42.0176 68.1543H41.0098Z" fill="#808080"/>
</svg>
