<svg width="70" height="71" viewBox="0 0 70 71" fill="none" xmlns="http://www.w3.org/2000/svg">
<path d="M15.9256 29.1796C15.9256 29.1796 14.9784 28.4969 16.115 27.5852L18.7632 25.2172C18.7632 25.2172 19.5209 24.42 20.3221 25.1146L44.7595 43.6164V52.4884C44.7595 52.4884 44.7477 53.8815 42.9599 53.7276L15.9256 29.1796Z" fill="#2489CA"/>
<path d="M22.2244 34.8984L15.9256 40.625C15.9256 40.625 15.2783 41.1065 15.9256 41.9668L18.85 44.6268C18.85 44.6268 19.5446 45.3727 20.5707 44.5242L27.2484 39.4607L22.2244 34.8984Z" fill="#1070B3"/>
<path d="M33.2828 34.9457L44.8346 26.125L44.7596 17.3003C44.7596 17.3003 44.2662 15.3743 42.6205 16.3768L27.2484 30.3676L33.2828 34.9457Z" fill="#0877B9"/>
<path d="M42.9599 53.7395C43.6308 54.4262 44.4439 54.2012 44.4439 54.2012L53.4461 49.7652C54.5985 48.9798 54.4367 48.005 54.4367 48.005V21.5153C54.4367 20.351 53.2448 19.9485 53.2448 19.9485L45.4423 16.1874C43.7374 15.1336 42.6205 16.3768 42.6205 16.3768C42.6205 16.3768 44.0571 15.3428 44.7596 17.3003V52.3266C44.7596 52.5673 44.7083 52.8041 44.6057 53.0172C44.4004 53.4316 43.9545 53.8184 42.8849 53.6566L42.9599 53.7395Z" fill="#3C99D4"/>
<path d="M18.8301 70L21.25 63.3789H20.166L18.3027 68.8223H18.2734L16.4102 63.3789H15.3086L17.7285 70H18.8301ZM21.707 68.1543C21.7773 69.3555 22.7852 70.1113 24.2734 70.1113C25.8672 70.1113 26.8691 69.332 26.8691 68.0898C26.8691 67.1172 26.2949 66.5723 24.9062 66.25L24.168 66.0742C23.2949 65.8633 22.9316 65.5938 22.9316 65.1309C22.9316 64.5508 23.5 64.1523 24.3203 64.1523C25.1465 64.1523 25.7031 64.5508 25.7676 65.2012H26.7637C26.7285 64.0527 25.75 63.2676 24.3379 63.2676C22.9023 63.2676 21.8887 64.0527 21.8887 65.207C21.8887 66.1328 22.457 66.7012 23.7051 66.9941L24.5723 67.1992C25.4512 67.4102 25.8262 67.709 25.8262 68.2188C25.8262 68.7988 25.2109 69.2207 24.3496 69.2207C23.4473 69.2207 22.791 68.7988 22.7148 68.1543H21.707ZM33.2324 70.1113C34.7793 70.1113 35.8281 69.2969 36.0918 67.9199H35.0723C34.8613 68.7168 34.1816 69.1914 33.2383 69.1914C31.9844 69.1914 31.1875 68.2246 31.1875 66.6836C31.1875 65.166 31.9902 64.1875 33.2324 64.1875C34.1523 64.1875 34.8848 64.7441 35.0723 65.5879H36.0859C35.9043 64.1992 34.75 63.2676 33.2324 63.2676C31.3516 63.2676 30.1445 64.5859 30.1445 66.6895C30.1445 68.8047 31.3398 70.1113 33.2324 70.1113ZM40.0762 63.2676C38.1309 63.2676 36.918 64.5859 36.918 66.6895C36.918 68.7988 38.1309 70.1113 40.0762 70.1113C42.0156 70.1113 43.2285 68.7988 43.2285 66.6895C43.2285 64.5859 42.0156 63.2676 40.0762 63.2676ZM40.0762 64.1934C41.3711 64.1934 42.1855 65.1602 42.1855 66.6895C42.1855 68.2188 41.3711 69.1855 40.0762 69.1855C38.7754 69.1855 37.9609 68.2188 37.9609 66.6895C37.9609 65.1602 38.7812 64.1934 40.0762 64.1934ZM44.3594 63.3789V70H46.7617C48.7773 70 49.9609 68.7695 49.9609 66.6777C49.9609 64.5859 48.7715 63.3789 46.7617 63.3789H44.3594ZM45.3789 64.2871H46.6738C48.1152 64.2871 48.918 65.1426 48.918 66.6836C48.918 68.2422 48.1211 69.0918 46.6738 69.0918H45.3789V64.2871ZM55.3574 69.0918H52.1055V67.0645H55.1875V66.1914H52.1055V64.2871H55.3574V63.3789H51.0859V70H55.3574V69.0918Z" fill="#808080"/>
</svg>
