<svg width="70" height="71" viewBox="0 0 70 71" fill="none" xmlns="http://www.w3.org/2000/svg">
<path d="M17.1759 17.662H52.824V52.3379H17.1759V17.662Z" fill="#2E001E"/>
<path d="M15.5556 16.0416V53.9583H54.4444V16.0416H15.5556ZM17.1759 17.662H52.8241V52.3379H17.1759V17.662Z" fill="#FF2BC2"/>
<path d="M43.7986 31.9698C43.5556 31.8564 43.2477 31.8078 42.8588 31.8078C40.8171 31.8078 39.456 33.3796 39.456 35.9883C39.456 38.9698 40.8495 40.1689 42.6643 40.1689C43.0532 40.1689 43.4745 40.1203 43.7824 39.9906V31.9698H43.7986ZM36.5393 36.118C36.5393 32.3425 38.9699 29.3935 42.956 29.3935C43.2963 29.3935 43.4745 29.3935 43.7986 29.4259V25.2129C43.7986 25.1157 43.8796 25.0509 43.9606 25.0509H46.5694C46.6991 25.0509 46.7315 25.0995 46.7315 25.1805V39.9906C46.7315 40.4281 46.7315 40.9791 46.8125 41.5786C46.8125 41.692 46.8125 41.7082 46.7153 41.7568C45.3542 42.405 43.9282 42.6967 42.5671 42.6967C39.0509 42.6967 36.5393 40.5254 36.5393 36.118ZM31.0139 33.493L35.5509 42.2916C35.6319 42.4212 35.5833 42.5508 35.4537 42.5508H32.6343C32.456 42.5508 32.375 42.5022 32.294 42.3402C31.2569 40.2013 30.2037 37.9814 29.1181 35.6805H29.0857C28.1134 37.8518 27.044 40.2175 26.0069 42.3564C25.9259 42.486 25.8449 42.5346 25.7153 42.5346H23.0255C22.8634 42.5346 22.8472 42.405 22.9282 42.3078L27.3681 33.7684L23.0741 25.2777C22.9769 25.1481 23.0741 25.0347 23.1875 25.0347H25.9745C26.1366 25.0347 26.2176 25.0671 26.2662 25.2129C27.287 27.368 28.3241 29.4907 29.2963 31.662H29.3287C30.2685 29.5231 31.3056 27.368 32.294 25.2453C32.375 25.1157 32.4236 25.0347 32.5856 25.0347H35.1944C35.3241 25.0347 35.3727 25.1319 35.2917 25.2777L31.0139 33.493Z" fill="#FF2BC2"/>
<path d="M16.4023 70H17.4746L15.0312 63.3789H13.9414L11.498 70H12.5586L13.1855 68.2246H15.7754L16.4023 70ZM14.4629 64.4922H14.4922L15.5059 67.3867H13.4492L14.4629 64.4922ZM18.3418 63.3789V70H20.7441C22.7598 70 23.9434 68.7695 23.9434 66.6777C23.9434 64.5859 22.7539 63.3789 20.7441 63.3789H18.3418ZM19.3613 64.2871H20.6562C22.0977 64.2871 22.9004 65.1426 22.9004 66.6836C22.9004 68.2422 22.1035 69.0918 20.6562 69.0918H19.3613V64.2871ZM27.9805 63.2676C26.0352 63.2676 24.8223 64.5859 24.8223 66.6895C24.8223 68.7988 26.0352 70.1113 27.9805 70.1113C29.9199 70.1113 31.1328 68.7988 31.1328 66.6895C31.1328 64.5859 29.9199 63.2676 27.9805 63.2676ZM27.9805 64.1934C29.2754 64.1934 30.0898 65.1602 30.0898 66.6895C30.0898 68.2188 29.2754 69.1855 27.9805 69.1855C26.6797 69.1855 25.8652 68.2188 25.8652 66.6895C25.8652 65.1602 26.6855 64.1934 27.9805 64.1934ZM35.0234 70C36.459 70 37.3262 69.291 37.3262 68.125C37.3262 67.2461 36.7051 66.6074 35.791 66.5078V66.4727C36.4648 66.3613 36.9863 65.7344 36.9863 65.0312C36.9863 64.0293 36.2012 63.3789 35.0117 63.3789H32.2637V70H35.0234ZM33.2832 64.2344H34.7656C35.5332 64.2344 35.9727 64.5742 35.9727 65.1777C35.9727 65.8281 35.4629 66.1914 34.543 66.1914H33.2832V64.2344ZM33.2832 69.1445V66.9883H34.7539C35.7559 66.9883 36.2773 67.3516 36.2773 68.0547C36.2773 68.7695 35.7734 69.1445 34.8242 69.1445H33.2832ZM42.6289 69.0918H39.377V67.0645H42.459V66.1914H39.377V64.2871H42.6289V63.3789H38.3574V70H42.6289V69.0918ZM45.8691 70H47.0059L48.7227 67.4922H48.7578L50.4512 70H51.6465L49.3848 66.7012L51.6934 63.3789H50.5391L48.834 65.9277H48.7988L47.1113 63.3789H45.8926L48.1309 66.666L45.8691 70ZM52.6426 63.3789V70H55.0449C57.0605 70 58.2441 68.7695 58.2441 66.6777C58.2441 64.5859 57.0547 63.3789 55.0449 63.3789H52.6426ZM53.6621 64.2871H54.957C56.3984 64.2871 57.2012 65.1426 57.2012 66.6836C57.2012 68.2422 56.4043 69.0918 54.957 69.0918H53.6621V64.2871Z" fill="#808080"/>
</svg>
